# xmcd
#
# Track frame offsets:
#	150
#	13951
#	28770
#	41767
#	57101
#	70316
#	88058
#	105436
#	118498
#	131661
#	148679
#
# Disc length: 2165 seconds
# Revision: 0
# Processed by: cddbd v1.5.2PL0 Copyright (c) Steve Scherf et al.
# Submitted via: dBpowerAMP V12.0
#
DISCID=a308730b
DTITLE=Various Artist - On The Other Side Of The City
DYEAR=2011
DGENRE=Country
TTITLE0=Downtown Ramblers - Singing With The Birds
TTITLE1=Downtown Ramblers - That Ain't The Case
TTITLE2=Downtown Ramblers - I'll Go
TTITLE3=Downtown Ramblers - Take Your Eyes Away From Me
TTITLE4=Downtown Ramblers - Never Planned
TTITLE5=Downtown Ramblers - Either Way
TTITLE6=Downtown Ramblers with Tim O'Brien - Be My Baby Still
TTITLE7=Downtown Ramblers - This Town
TTITLE8=Downtown Ramblers - Let Go
TTITLE9=Downtown Ramblers - After We're Gone
TTITLE10=Downtown Ramblers - I Will Follow
EXTD=
EXTT0=
EXTT1=
EXTT2=
EXTT3=
EXTT4=
EXTT5=
EXTT6=
EXTT7=
EXTT8=
EXTT9=
EXTT10=
PLAYORDER=
